# xmcd
#
# Track frame offsets: 
#        150
#        21986
#        39494
#        72149
#
# Disc length: 1233 seconds
#
# Revision: 0
# Processed by: cddbd v1.5.2PL0 Copyright (c) Steve Scherf et al.
# Submitted via: ExactAudioCopy v0.99pb5
#
DISCID=2d04cf04
DTITLE=Hypnotic Wheels - 4 titres
DYEAR=2013
DGENRE=Blues
TTITLE0=See-line woman
TTITLE1=I came on the Moon
TTITLE2=Down in the Mississippi
TTITLE3=Northern France
EXTD=
EXTT0=
EXTT1=
EXTT2=
EXTT3=
PLAYORDER=
